<svg width="29" height="29" viewBox="0 0 29 29" fill="none" xmlns="http://www.w3.org/2000/svg">
<path d="M14.5 0.0625C18.3293 0.0625 22.0018 1.5837 24.7096 4.29145C27.4173 6.9992 28.9385 10.6717 28.9385 14.501C28.9385 18.3304 27.4173 22.0029 24.7096 24.7106C22.0018 27.4184 18.3293 28.9396 14.5 28.9396C10.6707 28.9396 6.99816 27.4184 4.29041 24.7106C1.58266 22.0029 0.0614624 18.3304 0.0614624 14.501C0.0614624 10.6717 1.58266 6.9992 4.29041 4.29145C6.99816 1.5837 10.6707 0.0625 14.5 0.0625ZM16.6656 8.92712C17.7381 8.92712 18.6085 8.18256 18.6085 7.07912C18.6085 5.97569 17.7361 5.23112 16.6656 5.23112C15.5931 5.23112 14.7269 5.97569 14.7269 7.07912C14.7269 8.18256 15.5931 8.92712 16.6656 8.92712ZM17.0431 20.5328C17.0431 20.3121 17.1194 19.7388 17.0761 19.4129L15.3807 21.364C15.0301 21.7332 14.5907 21.9889 14.3845 21.9209C14.2909 21.8864 14.2127 21.8197 14.1639 21.7328C14.1152 21.6458 14.099 21.5443 14.1184 21.4465L16.9441 12.52C17.1751 11.3877 16.5398 10.3544 15.193 10.2224C13.7719 10.2224 11.6806 11.6641 10.408 13.4935C10.408 13.7121 10.3667 14.2566 10.4101 14.5825L12.1034 12.6293C12.454 12.2642 12.8624 12.0064 13.0686 12.0766C13.1702 12.113 13.2535 12.1879 13.3005 12.2851C13.3476 12.3822 13.3547 12.494 13.3202 12.5963L10.5194 21.4795C10.1956 22.519 10.8081 23.5379 12.2931 23.7689C14.4794 23.7689 15.7705 22.3623 17.0451 20.5328H17.0431Z" fill="#2A6ACA"/>
</svg>
