<svg xmlns="http://www.w3.org/2000/svg" viewBox="0 0 32 32"><g fill="none" fill-rule="evenodd"><path fill="#019723" d="m0 0h32v32h-32z"/><path fill="#f2f2f2" d="m22.3168237 4.3906522h1.1586443v-1.52453201l1.524532-2.74415763h-1.2806069l-.811051 1.67698522h-.0243925l-.8110511-1.67698522h-1.2806069l1.5245321 2.74415763zm-5.5987922 0h3.3234798v-1.03668177h-2.1648355v-.60981281h1.6160039v-.97570048h-1.6160039v-.60981281h2.1038542v-1.03668177h-3.2624985zm-5.1616252 0h1.1586444v-2.3477793l1.8294384 2.3477793h1.0061911v-4.26868964h-1.1586443v2.3477793l-1.8294384-2.3477793h-1.0061912zm-3.11476249-.94520985c-.67079408 0-1.18913497-.51834088-1.18913497-1.18913497s.51834089-1.18913497 1.18913497-1.18913497c.67079409 0 1.18913497.51834088 1.18913497 1.18913497s-.51834088 1.18913497-1.18913497 1.18913497zm0 1.06717241c1.37207881 0 2.37826999-1.00619113 2.37826999-2.25630738s-1.00619118-2.25630738-2.37826999-2.25630738-2.37826994 1.00619113-2.37826994 2.25630738 1.00619113 2.25630738 2.37826994 2.25630738zm-7.86173184-.12196256h1.15864433v-2.53072314l1.18913497 1.49404137 1.18913497-1.49404137v2.53072314h1.15864433v-4.26868964h-1.03668177l-1.31109753 1.64649458-1.31109753-1.64649458h-1.03668177zm20.70503743 6.0120496h.3083771v-2.03528918h2.6212058v2.03528918h.3083772v-4.3172801h-.3083772v1.97361377h-2.6212058v-1.97361377h-.3083771zm-3.4430392.0616754c1.1718331 0 1.7885874-.92513141 1.7885874-.92513141l-.215864-.18502629s-.5242411.8017806-1.5727234.8017806-1.8811007-.83261832-1.8811007-1.91193834c0-1.07932003.8326184-1.91193834 1.8811007-1.91193834 1.0423147 0 1.5418857.8017806 1.5418857.8017806l.215864-.18502629s-.5859166-.92513146-1.7577497-.92513146c-1.2026709 0-2.1894778.98680689-2.1894778 2.22031549s.9868069 2.22031544 2.1894778 2.22031544zm-4.6084051-.0616754h.3083772v-4.00890295h1.4185349v-.30837715h-3.145447v.30837715h1.4185349zm-4.51749847-3.88555209-.95596917 2.31282863h1.91193834zm.15418857-.43172801 1.7885875 4.3172801h-.3392149l-.52424114-1.26434631h-2.15864006l-.52424115 1.26434631h-.33921487l1.78858747-4.3172801zm-8.53098033 0 1.20267088 3.82387667 1.2335086-3.82387667h.30837715l1.23350861 3.82387667 1.20267088-3.82387667h.33921487l-1.38769718 4.3172801h-.30837715l-1.2335086-3.82387666-1.2335086 3.82387666h-.30837715l-1.38769718-4.3172801z" transform="translate(3.5 10.768)"/></g></svg>