<?xml version="1.0" encoding="utf-8"?>
<!-- Svg Vector Icons : http://www.onlinewebfonts.com/icon -->
<!DOCTYPE svg PUBLIC "-//W3C//DTD SVG 1.1//EN" "http://www.w3.org/Graphics/SVG/1.1/DTD/svg11.dtd">
<svg version="1.1" xmlns="http://www.w3.org/2000/svg" xmlns:xlink="http://www.w3.org/1999/xlink" x="0px" y="0px" viewBox="0 0 256 256" enable-background="new 0 0 256 256" xml:space="preserve">
<metadata> Svg Vector Icons : http://www.onlinewebfonts.com/icon </metadata>
<g><g><g><path fill="#fff" d="M119.6,10.1c-29.3,2.6-54.9,14.3-75,34.5C26.1,63,15,85.2,10.9,112.1c-1.2,7.5-1.2,24.4,0,31.9c4.1,26.7,15.2,49,33.5,67.4c18.3,18.4,40.8,29.6,67.7,33.7c7.5,1.2,24.4,1.2,31.9,0c26.8-4.1,49.1-15.3,67.5-33.6c18.4-18.4,29.6-40.7,33.6-67.5c1.2-7.6,1.2-24.4,0-31.9C241,85.2,229.9,63,211.5,44.6C193.2,26.3,170.6,15,144.4,11C139.7,10.3,123.9,9.7,119.6,10.1z M141.4,59.1c27.2,2.5,49.9,13.1,68.7,32c8.5,8.6,16.1,18.8,21.1,28.7l2.1,4l-2.3,4.2c-6.1,11.2-16.1,24.5-26,34.4c-10.9,10.9-20.8,18.1-33.1,24.1c-15.7,7.7-31.3,11-48.3,10.4c-8.5-0.3-14.1-1.1-21.8-3.1C78.9,188,57.3,173.4,40.1,152c-5.5-6.8-12-16.6-15.1-22.6l-2.2-4.2l1.7-3.1c10.2-18.7,28.4-37.2,47.2-48c14.9-8.6,30.1-13.2,49.3-15.1C124.8,58.5,136.6,58.6,141.4,59.1z"/><path fill="#fff" d="M121.9,69.7C99,72.6,80.7,87.2,73.2,108.3c-2.4,6.9-3.1,11.2-3.1,19.2c0,5.3,0.2,8.4,0.8,11.3c5.1,23.5,22.3,40.7,45.8,45.8c2.9,0.6,6,0.8,11.3,0.8c5.3,0,8.4-0.2,11.3-0.8c23.5-5.1,40.7-22.3,45.8-45.8c1.2-5.5,1.2-17,0-22.5c-5-23.2-21.9-40.4-44.9-45.6C136.3,69.9,125.4,69.2,121.9,69.7z"/></g></g></g>
</svg>